<?xml version="1.0" encoding="UTF-8" standalone="no"?>
<!-- Created with Inkscape (http://www.inkscape.org/) -->

<svg
   xmlns:dc="http://purl.org/dc/elements/1.1/"
   xmlns:cc="http://creativecommons.org/ns#"
   xmlns:rdf="http://www.w3.org/1999/02/22-rdf-syntax-ns#"
   xmlns:svg="http://www.w3.org/2000/svg"
   xmlns="http://www.w3.org/2000/svg"
   xmlns:sodipodi="http://sodipodi.sourceforge.net/DTD/sodipodi-0.dtd"
   xmlns:inkscape="http://www.inkscape.org/namespaces/inkscape"
   width="16"
   height="16"
   id="svg2"
   version="1.1"
   inkscape:version="0.48.4 r9939"
   sodipodi:docname="icon_key.svg">
  <defs
     id="defs4" />
  <sodipodi:namedview
     id="base"
     pagecolor="#ffffff"
     bordercolor="#666666"
     borderopacity="1.0"
     inkscape:pageopacity="0.0"
     inkscape:pageshadow="2"
     inkscape:zoom="31.678384"
     inkscape:cx="9.8172128"
     inkscape:cy="8.1359893"
     inkscape:document-units="px"
     inkscape:current-layer="layer1"
     showgrid="false"
     inkscape:window-width="1366"
     inkscape:window-height="713"
     inkscape:window-x="0"
     inkscape:window-y="0"
     inkscape:window-maximized="1" />
  <metadata
     id="metadata7">
    <rdf:RDF>
      <cc:Work
         rdf:about="">
        <dc:format>image/svg+xml</dc:format>
        <dc:type
           rdf:resource="http://purl.org/dc/dcmitype/StillImage" />
      </cc:Work>
    </rdf:RDF>
  </metadata>
  <g
     inkscape:label="Layer 1"
     inkscape:groupmode="layer"
     id="layer1"
     transform="translate(0,-1036.3622)">
    <path
       style="color:#000000;fill:#343352;fill-opacity:1;fill-rule:nonzero;stroke:none;stroke-width:0.06148081000000000;stroke-linecap:butt;stroke-linejoin:miter;stroke-miterlimit:4;stroke-opacity:1;stroke-dasharray:none;stroke-dashoffset:0;marker:none;visibility:visible;display:inline;overflow:visible;enable-background:accumulate"
       d="m 4.2273242,1043.2465 0,2.1683 2.4976577,0 0.9331908,-0.9332 0.9331908,0.9332 0.1921275,0 0.027447,0 0.5763825,-0.6038 0.603829,0.6038 0.3842545,0 0.356809,-0.3568 0.356808,0.3568 0.905744,0 0.384255,-0.3842 0.411701,0.3842 0.384255,0 0.548936,-0.5764 0.576383,0.5764 0.05489,0 1.53702,-1.29 0,-0.1921 -1.207658,-0.6862 -5.5716973,0 -1.8389348,0 -3.0465935,0 z"
       id="rect3755"
       inkscape:connector-curvature="0" />
    <path
       style="color:#000000;fill:#343352;fill-opacity:1;fill-rule:nonzero;stroke:none;stroke-width:0.03612762000000000;stroke-linecap:butt;stroke-linejoin:miter;stroke-miterlimit:4;stroke-opacity:1;stroke-dasharray:none;stroke-dashoffset:0;marker:none;visibility:visible;display:inline;overflow:visible;enable-background:accumulate"
       d="M 3.15625 4.78125 C 1.5057829 4.78125 0.15625 6.2110171 0.15625 7.96875 C 0.15625 9.7264829 1.5057829 11.15625 3.15625 11.15625 C 4.8067171 11.15625 6.15625 9.7264829 6.15625 7.96875 C 6.15625 6.2110171 4.8067171 4.78125 3.15625 4.78125 z M 1.71875 7.34375 C 2.0761495 7.34375 2.375 7.6426005 2.375 8 C 2.375 8.3573995 2.0761495 8.65625 1.71875 8.65625 C 1.3613505 8.65625 1.0625 8.3573995 1.0625 8 C 1.0625 7.6426005 1.3613505 7.34375 1.71875 7.34375 z "
       transform="translate(0,1036.3622)"
       id="path2985" />
  </g>
</svg>
