<?xml version="1.0" encoding="UTF-8" standalone="no"?>
<!-- Created with Inkscape (http://www.inkscape.org/) -->

<svg
   xmlns:dc="http://purl.org/dc/elements/1.1/"
   xmlns:cc="http://creativecommons.org/ns#"
   xmlns:rdf="http://www.w3.org/1999/02/22-rdf-syntax-ns#"
   xmlns:svg="http://www.w3.org/2000/svg"
   xmlns="http://www.w3.org/2000/svg"
   xmlns:sodipodi="http://sodipodi.sourceforge.net/DTD/sodipodi-0.dtd"
   xmlns:inkscape="http://www.inkscape.org/namespaces/inkscape"
   width="256"
   height="256"
   id="svg2"
   version="1.1"
   inkscape:version="0.48.1 r9760"
   sodipodi:docname="stop.svg">
  <defs
     id="defs4" />
  <sodipodi:namedview
     id="base"
     pagecolor="#ffffff"
     bordercolor="#666666"
     borderopacity="1.0"
     inkscape:pageopacity="0.0"
     inkscape:pageshadow="2"
     inkscape:zoom="1.6849029"
     inkscape:cx="155.13428"
     inkscape:cy="141.85871"
     inkscape:document-units="px"
     inkscape:current-layer="layer1"
     showgrid="false"
     inkscape:window-width="1366"
     inkscape:window-height="715"
     inkscape:window-x="0"
     inkscape:window-y="504"
     inkscape:window-maximized="1" />
  <metadata
     id="metadata7">
    <rdf:RDF>
      <cc:Work
         rdf:about="">
        <dc:format>image/svg+xml</dc:format>
        <dc:type
           rdf:resource="http://purl.org/dc/dcmitype/StillImage" />
        <dc:title></dc:title>
      </cc:Work>
    </rdf:RDF>
  </metadata>
  <g
     inkscape:label="Layer 1"
     inkscape:groupmode="layer"
     id="layer1"
     transform="translate(0,-796.36217)">
    <path
       style="fill:#343352;fill-opacity:1;stroke:none"
       d="M 120.25 23.25 C 64.048658 23.25 18.5 70.94396 18.5 129.78125 C 18.5 188.61854 64.048658 236.3125 120.25 236.3125 C 158.69874 236.3125 192.16289 214.00269 209.46875 181.0625 L 179.875 181.0625 C 165.71833 199.07301 144.26515 210.59375 120.25 210.59375 C 77.624567 210.59375 43.0625 174.40589 43.0625 129.78125 C 43.0625 85.1566 77.624567 48.96875 120.25 48.96875 C 150.42517 48.96875 176.55833 67.106908 189.25 93.53125 L 163.78125 93.53125 L 202.375 163.53125 L 240.96875 93.53125 L 215.9375 93.53125 C 201.77095 52.541441 164.29304 23.25 120.25 23.25 z "
       transform="translate(0,796.36217)"
       id="path3830" />
  </g>
</svg>
